<svg width="1200" height="700" viewBox="0 0 1200 700" xmlns="http://www.w3.org/2000/svg">
  <rect width="1200" height="700" fill="#0b1220"/>
  <rect x="24" y="24" width="1152" height="652" rx="12" fill="#0f1c2e" stroke="#1e2f42" stroke-width="1"/>

  <text x="56" y="66" fill="#e2e8f0" font-size="28" font-weight="700" font-family="Inter, sans-serif">NDCG@10 &#8212; Ablation Ladder</text>
  <text x="56" y="120" fill="#94a3b8" font-size="16" font-family="Inter, sans-serif">317-query canonical benchmark &#183; data/qrels/qrels.canonical.jsonl &#183; scripts/eval/run_ablation_ladder.py</text>

  <line x1="340.0" y1="150" x2="340.0" y2="580" stroke="#1e2f42" stroke-width="1"/><text x="340.0" y="608" fill="#94a3b8" font-size="15" text-anchor="middle" font-family="JetBrains Mono, monospace">0.75</text><line x1="496.0" y1="150" x2="496.0" y2="580" stroke="#1e2f42" stroke-width="1"/><text x="496.0" y="608" fill="#94a3b8" font-size="15" text-anchor="middle" font-family="JetBrains Mono, monospace">0.78</text><line x1="652.0" y1="150" x2="652.0" y2="580" stroke="#1e2f42" stroke-width="1"/><text x="652.0" y="608" fill="#94a3b8" font-size="15" text-anchor="middle" font-family="JetBrains Mono, monospace">0.81</text><line x1="808.0" y1="150" x2="808.0" y2="580" stroke="#1e2f42" stroke-width="1"/><text x="808.0" y="608" fill="#94a3b8" font-size="15" text-anchor="middle" font-family="JetBrains Mono, monospace">0.84</text><line x1="964.0" y1="150" x2="964.0" y2="580" stroke="#1e2f42" stroke-width="1"/><text x="964.0" y="608" fill="#94a3b8" font-size="15" text-anchor="middle" font-family="JetBrains Mono, monospace">0.87</text><line x1="1120.0" y1="150" x2="1120.0" y2="580" stroke="#1e2f42" stroke-width="1"/><text x="1120.0" y="608" fill="#94a3b8" font-size="15" text-anchor="middle" font-family="JetBrains Mono, monospace">0.90</text>
  <line x1="340" y1="580" x2="1120" y2="580" stroke="#94a3b8" stroke-width="1.5"/>

  <rect x="340" y="173.7" width="568.9" height="60.2" rx="4" fill="#1c6b7a"/><text x="316" y="208.8" fill="#e2e8f0" font-size="19" text-anchor="end" font-family="Inter, sans-serif" font-weight="400">Hybrid + Graph Context</text><text x="922.9" y="208.8" fill="#e2e8f0" font-size="19" font-weight="700" font-family="JetBrains Mono, monospace">0.8594</text><rect x="340" y="281.1" width="511.2" height="60.2" rx="4" fill="#1c6b7a"/><text x="316" y="316.2" fill="#e2e8f0" font-size="19" text-anchor="end" font-family="Inter, sans-serif" font-weight="400">Typed KG Signals</text><text x="865.2" y="316.2" fill="#e2e8f0" font-size="19" font-weight="700" font-family="JetBrains Mono, monospace">0.8483</text><rect x="340" y="388.6" width="511.2" height="60.2" rx="4" fill="#1c6b7a"/><text x="316" y="423.8" fill="#e2e8f0" font-size="19" text-anchor="end" font-family="Inter, sans-serif" font-weight="400">Typed KG (Qualified)</text><text x="865.2" y="423.8" fill="#e2e8f0" font-size="19" font-weight="700" font-family="JetBrains Mono, monospace">0.8483</text><rect x="340" y="496.1" width="568.9" height="60.2" rx="4" fill="#22d3ee"/><text x="316" y="531.2" fill="#e2e8f0" font-size="19" text-anchor="end" font-family="Inter, sans-serif" font-weight="600">Full Pipeline (Production)</text><text x="922.9" y="531.2" fill="#f1f5f9" font-size="19" font-weight="700" font-family="JetBrains Mono, monospace">0.8594</text><text x="316" y="550.2" fill="#fbbf24" font-size="13" text-anchor="end" font-family="Inter, sans-serif">current production rung</text>

  <text x="56" y="660" fill="#94a3b8" font-size="14" font-family="Inter, sans-serif">Every KG-affecting change is gated against this ladder before merge &#8212; it has caught 3 real regressions to date.</text>
</svg>