<svg xmlns="http://www.w3.org/2000/svg" width="1200" height="675" viewBox="0 0 1200 675" role="img" aria-labelledby="title desc">
  <title id="title">Neural Search search UI placeholder</title>
  <desc id="desc">Placeholder image for the public demo search screen.</desc>
  <rect width="1200" height="675" fill="#0a1929"/>
  <rect x="64" y="48" width="1072" height="579" rx="18" fill="#102a43" stroke="#334e68"/>
  <text x="96" y="104" fill="#22d3ee" font-family="Inter, Arial, sans-serif" font-size="28" font-weight="700">Neural Search</text>
  <text x="96" y="148" fill="#d9e2ec" font-family="Inter, Arial, sans-serif" font-size="42" font-weight="700">Experiment-aware dataset discovery</text>
  <text x="96" y="188" fill="#9fb3c8" font-family="Inter, Arial, sans-serif" font-size="21">Replace this placeholder with a screenshot or GIF of the search landing page.</text>
  <rect x="96" y="238" width="760" height="70" rx="12" fill="#0a1929" stroke="#486581"/>
  <text x="132" y="282" fill="#bcccdc" font-family="JetBrains Mono, monospace" font-size="20">Find reversal learning datasets with reward omission</text>
  <rect x="880" y="238" width="160" height="70" rx="12" fill="#22d3ee"/>
  <text x="926" y="282" fill="#0a1929" font-family="Inter, Arial, sans-serif" font-size="20" font-weight="700">Search</text>
  <g font-family="Inter, Arial, sans-serif" font-size="16">
    <rect x="96" y="352" width="230" height="40" rx="8" fill="#243b53"/>
    <text x="118" y="378" fill="#22d3ee">task: reversal learning</text>
    <rect x="348" y="352" width="210" height="40" rx="8" fill="#243b53"/>
    <text x="370" y="378" fill="#10b981">behavior: omission</text>
    <rect x="580" y="352" width="218" height="40" rx="8" fill="#243b53"/>
    <text x="602" y="378" fill="#8b5cf6">modality: ephys</text>
    <rect x="820" y="352" width="170" height="40" rx="8" fill="#243b53"/>
    <text x="842" y="378" fill="#f59e0b">provenance</text>
  </g>
  <rect x="96" y="448" width="1008" height="116" rx="12" fill="#0a1929" stroke="#334e68"/>
  <text x="124" y="492" fill="#d9e2ec" font-family="Inter, Arial, sans-serif" font-size="24" font-weight="700">Demo capture target</text>
  <text x="124" y="528" fill="#9fb3c8" font-family="Inter, Arial, sans-serif" font-size="18">Show example queries, structured search, and the distinction from generic RAG.</text>
</svg>
